{
	"asset":{
		"generator":"Khronos glTF Blender I/O v4.0.44",
		"version":"2.0"
	},
	"scene":0,
	"scenes":[
		{
			"name":"Scene",
			"nodes":[
				0
			]
		}
	],
	"nodes":[
		{
			"mesh":0,
			"name":"Viking Sword",
			"rotation":[
				1,
				0,
				0,
				7.549790126404332e-08
			]
		}
	],
	"materials":[
		{
			"doubleSided":true,
			"name":"Viking Sword",
			"normalTexture":{
				"index":0
			},
			"pbrMetallicRoughness":{
				"baseColorTexture":{
					"index":1
				},
				"metallicRoughnessTexture":{
					"index":2
				}
			}
		}
	],
	"meshes":[
		{
			"name":"Cube.001",
			"primitives":[
				{
					"attributes":{
						"POSITION":0,
						"NORMAL":1,
						"TEXCOORD_0":2
					},
					"indices":3,
					"material":0
				}
			]
		}
	],
	"textures":[
		{
			"sampler":0,
			"source":0
		},
		{
			"sampler":0,
			"source":1
		},
		{
			"sampler":0,
			"source":2
		}
	],
	"images":[
		{
			"mimeType":"image/png",
			"name":"Viking Sword_Normal",
			"uri":"Viking%20Sword_Normal.png"
		},
		{
			"mimeType":"image/png",
			"name":"Viking Sword_BaseColor",
			"uri":"Viking%20Sword_BaseColor.png"
		},
		{
			"mimeType":"image/png",
			"name":"Viking Sword_Metallic.png-Viking Sword_Roughness.png",
			"uri":"Viking%20Sword_Metallic_png-Viking%20Sword_Roughness_png.png"
		}
	],
	"accessors":[
		{
			"bufferView":0,
			"componentType":5126,
			"count":2202,
			"max":[
				0.012468263506889343,
				0.7999999523162842,
				0.06253186613321304
			],
			"min":[
				-0.012468267232179642,
				-0.15482810139656067,
				-0.06253186613321304
			],
			"type":"VEC3"
		},
		{
			"bufferView":1,
			"componentType":5126,
			"count":2202,
			"type":"VEC3"
		},
		{
			"bufferView":2,
			"componentType":5126,
			"count":2202,
			"type":"VEC2"
		},
		{
			"bufferView":3,
			"componentType":5123,
			"count":6042,
			"type":"SCALAR"
		}
	],
	"bufferViews":[
		{
			"buffer":0,
			"byteLength":26424,
			"byteOffset":0,
			"target":34962
		},
		{
			"buffer":0,
			"byteLength":26424,
			"byteOffset":26424,
			"target":34962
		},
		{
			"buffer":0,
			"byteLength":17616,
			"byteOffset":52848,
			"target":34962
		},
		{
			"buffer":0,
			"byteLength":12084,
			"byteOffset":70464,
			"target":34963
		}
	],
	"samplers":[
		{
			"magFilter":9729,
			"minFilter":9987
		}
	],
	"buffers":[
		{
			"byteLength":82548,
			"uri":"Viking%20Sword.bin"
		}
	]
}
